<svg xmlns="http://www.w3.org/2000/svg" viewBox="-164 339.6 512 512"><style type="text/css">  
	.st0{fill:#99B4CD;}
	.st1{fill:#FADC65;}
	.st2{fill:#EAB851;}
	.st3{fill:#DFE8F6;}
	.st4{fill:#F4F7FA;}
	.st5{fill:#E66C70;}
	.st6{fill:#DF6266;}
	.st7{fill:#A7BFCE;}
	.st8{fill:#D5E3EF;}
	.st9{fill:#B0C4D9;}
</style><path class="st0" d="M39.3 715.8c-4.3 0-7.7-4.3-7.7-9.5V591.6c0-5.3 3.5-9.5 7.7-9.5 4.3 0 7.7 4.3 7.7 9.5v114.7C47.1 711.5 43.6 715.8 39.3 715.8z"/><path class="st0" d="M212.7 715.8c-4.3 0-7.7-4.3-7.7-9.5V591.6c0-5.3 3.5-9.5 7.7-9.5s7.7 4.3 7.7 9.5v114.7C220.4 711.5 216.9 715.8 212.7 715.8z"/><path class="st1" d="M-19.4 737.8v8.5 33c0 29.6 24.1 53.7 53.7 53.7h172.8c29.6 0 53.7-24.1 53.7-53.7v-33 -8.5H-19.4z"/><path class="st2" d="M97.2 794.4c-29.6 0-53.7-24.1-53.7-53.7v-2.8h-63v8.5 33c0 29.6 24.1 53.7 53.7 53.7h172.8c24.4 0 45-16.3 51.5-38.6L97.2 794.4 97.2 794.4z"/><path class="st1" d="M-25.5 747.3c-25.7 0-46.5-20.8-46.5-46.5v-23.1c0-3.7 3-6.6 6.6-6.6h40.3c8.3 0 15.1 6.8 15.1 15.1v9.4c0 2 1.6 3.6 3.6 3.6H247c2 0 3.6-1.6 3.6-3.6v-9.4c0-8.3 6.8-15.1 15.1-15.1H306c3.7 0 6.6 3 6.6 6.6v8.1c0 34-27.5 61.5-61.5 61.5L-25.5 747.3 -25.5 747.3z"/><path class="st2" d="M286.5 718H9.9c-25.7 0-46.5-20.8-46.5-46.5v-0.4h-28.8c-3.7 0-6.6 3-6.6 6.6v23.1c0 25.7 20.8 46.5 46.5 46.5h276.6c23.4 0 43.7-13 54.1-32.2C299.3 716.9 293 718 286.5 718z"/><path class="st3" d="M47.7 770.6c-13.1 0-23.8-10.7-23.8-23.8 0-13.1 10.7-23.8 23.8-23.8s23.8 10.7 23.8 23.8C71.6 759.9 60.9 770.6 47.7 770.6z"/><path class="st3" d="M125.3 763.2c-9.1 0-16.4-7.4-16.4-16.4 0-9.1 7.4-16.4 16.4-16.4s16.4 7.4 16.4 16.4C141.8 755.9 134.4 763.2 125.3 763.2z"/><path class="st3" d="M187.2 763.2c-9.1 0-16.4-7.4-16.4-16.4 0-9.1 7.4-16.4 16.4-16.4s16.4 7.4 16.4 16.4C203.7 755.9 196.3 763.2 187.2 763.2z"/><path class="st4" d="M47.7 723c-10 0-18.5 6.2-22.1 14.9 3.5-2 7.5-3.1 11.7-3.1 13.1 0 23.8 10.7 23.8 23.8 0 3.2-0.6 6.2-1.8 9 7.2-4.1 12.1-11.9 12.1-20.7C71.6 733.7 60.9 723 47.7 723z"/><path class="st4" d="M125.3 730.4c-7.8 0-14.4 5.5-16 12.8 1.8-0.7 3.7-1 5.7-1 9.1 0 16.4 7.4 16.4 16.4 0 1.3-0.2 2.5-0.4 3.6 6.3-2.3 10.8-8.3 10.8-15.4C141.8 737.7 134.4 730.4 125.3 730.4z"/><path class="st4" d="M187.2 730.4c-7.8 0-14.4 5.5-16 12.8 1.8-0.7 3.7-1 5.7-1 9.1 0 16.4 7.4 16.4 16.4 0 1.3-0.2 2.5-0.4 3.6 6.3-2.3 10.8-8.3 10.8-15.4C203.7 737.7 196.3 730.4 187.2 730.4z"/><path class="st5" d="M-3.7 398.5c-3.5-5.6-9.5-9-16.1-9H-45c-3.6 0-6.4 2.9-6.4 6.4l-0.1 89h62.9v-62L-3.7 398.5z"/><path class="st5" d="M-3.7 615.4c-3.5 5.6-9.5 9-16.1 9H-45c-3.6 0-6.4-2.9-6.4-6.4l-0.1-89h62.9v62L-3.7 615.4z"/><path class="st6" d="M-51.5 557.8l50.2 49.5c0.5 0.6 1 1.1 1.5 1.7l11.2-18.1v-62h-62.9L-51.5 557.8z"/><path class="st6" d="M-1.2 406.5l-50.3 49.5 0 28.9h62.9v-62L0.3 404.9C-0.2 405.5-0.7 406-1.2 406.5z"/><path class="st6" d="M-48.8 482.4l-27.9-29.9H-119c-4.9 0-8.9 4-8.9 8.9v91.2c0 4.9 4 8.9 8.9 8.9h42.2l27.6-29.6c0.2 0 0.3 0 0.3 0h5.6v-49.4L-48.8 482.4 -48.8 482.4 -48.8 482.4z"/><path class="st7" d="M305.7 437.1c-20.1-28.4-49.1-45.6-80.1-45.6h-19.1c-2.7 2.9-4.6 6.4-5.6 10.4 -1.6 6.8-2.5 13.7-2.5 20.6v14.6h81L305.7 437.1 305.7 437.1z"/><path class="st8" d="M30.3 602.9c-6.4 0-12.4-3.1-17.1-8.8l-72.5-71.4c-3.9-3.9-6.2-9.6-6.2-15.7s2.3-11.8 6.2-15.7l72.5-71.4c4.7-5.7 10.8-8.8 17.1-8.8h195.3c36 0 69.1 30.3 82.2 75.4l2.2 7.7c2.4 8.3 2.4 17.4 0 25.7l-2.2 7.7c-13.1 45.1-46.2 75.4-82.2 75.4L30.3 602.9 30.3 602.9 30.3 602.9z"/><path class="st9" d="M273.2 513.9H77.9c-6.4 0-12.4-3.1-17.1-8.8l-67-66 -53.1 52.3c-3.9 3.9-6.2 9.6-6.2 15.7 0 6.1 2.3 11.8 6.2 15.7L13.1 594c4.7 5.7 10.8 8.8 17.1 8.8h195.3c36 0 69.1-30.3 82.2-75.4l2.2-7.7c1.7-5.7 2.2-11.9 1.5-17.9C299.8 509.6 286.7 513.9 273.2 513.9z"/><path class="st5" d="M311.7 509.7c0.1-1.8 0.1-3.6 0-5.3L310 502l-2.3-3c-13.4-17.2-45.6-28.4-82.1-28.4H30.3c-6.3 0-12.3 1.2-16.9 3.3L-65.2 503c-0.2 1.3-0.3 2.6-0.3 4 0 1.4 0.1 2.7 0.3 4L13.3 540c4.7 2.1 10.7 3.3 17 3.3h195.3c36.5 0 68.7-11.1 82.1-28.4l2.2-2.9L311.7 509.7z"/><path class="st6" d="M-65.2 511C-65.2 511-65.2 511-65.2 511L13.3 540c4.7 2.1 10.7 3.3 17 3.3h195.3c36.5 0 68.7-11.1 82.1-28.4l2.2-2.9 1.8-2.4c0-0.2 0-0.4 0-0.5 0-0.4 0-0.8 0-1.3 0-0.4 0-0.9 0-1.3 0-0.3 0-0.6 0-0.9 0-0.5 0-0.9 0-1.4l-1.3-1.7c-11.5 7.3-24.2 11.3-37.3 11.3H77.9c-6.4 0-12.4-3.1-17.1-8.8L26 470.8c-4.7 0.4-9.1 1.5-12.6 3.1L-65.2 503c0 0 0 0 0 0 -0.1 0.6-0.2 1.3-0.3 2 -0.1 0.7-0.1 1.4-0.1 2s0 1.4 0.1 2C-65.3 509.7-65.3 510.3-65.2 511z"/></svg>