<?xml version="1.0" encoding="utf-8"?>
<!-- Generator: Adobe Illustrator 19.0.0, SVG Export Plug-In . SVG Version: 6.00 Build 0)  -->
<svg version="1.1" xmlns="http://www.w3.org/2000/svg" xmlns:xlink="http://www.w3.org/1999/xlink" x="0px" y="0px"
	 viewBox="0 0 750 750" enable-background="new 0 0 750 750" xml:space="preserve">

<g id="mydesk" class="myeffect3">
	<g>
		<rect x="0" display="none" fill="#FFFFFF" width="750" height="750"/>
		<path display="none" opacity="5.000000e-02" fill="#9FC3C4" d="M628,576H122c-27.6,0-50-22.4-50-50V182c0-27.6,22.4-50,50-50h506
			c27.6,0,50,22.4,50,50v344C678,553.6,655.6,576,628,576z"/>
		<g>
			<g>
				<g>
					<g>
						<circle fill="#4A3A4F" cx="195.8" cy="468.9" r="14.5"/>
						<g>
							<path fill="#F7636C" d="M241.5,485.2h-91.3v-8.3c0-3.9,3.1-7,7-7h77.3c3.9,0,7,3.1,7,7V485.2z"/>
							<rect x="161" y="469.8" fill="#F78A91" width="15.2" height="15.3"/>
						</g>
						<g>
							<polygon fill="#9FC3C4" points="198.3,454.4 193.3,454.4 193.3,406.2 147.4,343.5 205.5,293.9 229.8,322.4 226,325.7
								205,301 154.1,344.3 198.3,404.6 							"/>
						</g>
						<circle fill="#403345" cx="151.8" cy="344.3" r="8.5"/>
						<circle fill="#403345" cx="195.8" cy="406.8" r="8.5"/>
						<circle fill="#403345" cx="205.3" cy="298.3" r="8.5"/>
						<circle fill="#FFC266" cx="252" cy="353.1" r="19"/>
						<g>
							<path fill="#F7636C" d="M219.2,338.6l-1.2-1.5c-5.8-6.9-4.8-17.2,2.1-23l0,0c6.9-5.8,17.2-4.8,23,2.1l1.2,1.5
								c4.1,4.9,10.2,7.6,16.6,7.4l0,0c6.4-0.2,12.5,2.5,16.6,7.4l5.8,6.7l-49.8,41.4l-5.8-6.7c-4.1-4.9-5.6-11.4-4.2-17.6l0,0
								C224.9,350,223.3,343.5,219.2,338.6z"/>
						</g>
						<path fill="#F05862" d="M218,337.1l1.2,1.5c4.1,4.9,5.6,11.4,4.2,17.6c-1.4,6.2,0.2,12.7,4.2,17.6l5.8,6.7l25.9-21.5
							l-39.3-44.9C213.2,319.9,212.2,330.2,218,337.1z"/>
					</g>
					<g>
						<g>
							<rect x="363.4" y="549.1" fill="#B8BED1" width="22.9" height="38.1"/>
							<rect x="363.4" y="544.3" fill="#9FA5B5" width="22.9" height="13.6"/>
							<g>
								<path fill="#B8BED1" d="M367.8,584.4l-57.6,7.9c-4,0.5-7.5-2.6-7.5-6.6v0c0-3.4,2.5-6.2,5.9-6.6l59.2-8.1V584.4z"/>
								<path fill="#B8BED1" d="M381.9,584.9l57.6,7.9c4,0.5,7.5-2.6,7.5-6.6v0c0-3.4-2.5-6.2-5.9-6.6l-59.2-8.1V584.9z"/>
							</g>
							<path fill="#3C2F40" d="M407.1,551.4h-64.5c-4.2,0-7.7-3.4-7.7-7.7v-13.7h79.8v13.7C414.8,548,411.3,551.4,407.1,551.4z"/>
							<path fill="#F7636C" d="M440.9,538.8h-132c-6.6,0-12-5.4-12-12v-21.3h156v21.3C452.9,533.4,447.5,538.8,440.9,538.8z"/>
							<path fill="#D1474F" d="M427.2,526.8H322.6c-5.3,0-9.5-4.3-9.5-9.5v-16.9h123.6v16.9C436.7,522.5,432.4,526.8,427.2,526.8z"
								/>
							<path fill="#F7636C" d="M308.9,339.8h132c6.6,0,12,5.4,12,12v141.7h-156V351.8C296.9,345.1,302.2,339.8,308.9,339.8z"/>
							<path fill="#D1474F" d="M322.6,357.4h104.6c5.3,0,9.5,4.3,9.5,9.5v120.5H313V367C313,361.7,317.3,357.4,322.6,357.4z"/>
							<g>
								<path fill="#4A3A4F" d="M351.9,601.8l-10-86.2c-0.1-3.9-3.3-6.9-7.2-6.8c-3.9,0.1-6.9,3.3-6.8,7.2l10,85.8H351.9z"/>
								<polygon fill="#603141" points="354.8,607.7 351.7,599.5 338.1,599.5 334.4,607.7 								"/>
							</g>
							<g>
								<path fill="#4A3A4F" d="M398.3,601.8l10-86.2c0.1-3.9,3.3-6.9,7.2-6.8c3.9,0.1,6.9,3.3,6.8,7.2l-10,85.8H398.3z"/>
								<polygon fill="#603141" points="395.4,607.7 398.5,599.5 412,599.5 415.7,607.7 								"/>
							</g>
							<g>
								<g>
									<path fill="#603141" d="M316.9,328.9c0,0-18-56.9,16.1-51.4c34.1,5.5,52.2-4.4,69.1-7.4c26.2-4.7,40.7,8,28.9,60.8
										L316.9,328.9z"/>
									<path fill="#F59784" d="M433.4,340.6l-117,0.3c-3.7,0-6.7-3-6.7-6.6l0,0c0-3.7,3-6.7,6.6-6.7l117-0.3c3.7,0,6.7,3,6.7,6.6
										l0,0C440,337.6,437.1,340.6,433.4,340.6z"/>
									<path fill="#FFA897" d="M399.2,523.5l-47.8,0.3c-12.3,0.1-22.5-9.6-23.2-22.1l-9.6-179.5c-1.2-20,14.5-37,34.4-37.1
										l41.8-0.3c19.9-0.1,35.8,16.6,34.8,36.7l-7.4,179.6C421.6,513.6,411.5,523.5,399.2,523.5z"/>
									<path fill="#4A3A4F" d="M327.3,484.4l0.9,17.3c0.7,12.4,10.9,22.2,23.2,22.1l47.8-0.3c12.3-0.1,22.4-9.9,22.9-22.4
										l0.7-17.4L327.3,484.4z"/>
									<g>
										<g>
											<g>
												<path fill="#E9E6ED" d="M453.3,485.3c4,0,8-1.3,11.4-4.8c8.8-9.2,5-24.2-14.7-57.4c-11.1-18.7-23.1-36-23.6-36.7
													l-19.7,13.7c0.1,0.1,10,14.3,19.7,30.4c8.8,14.4,13.4,23.7,15.9,29.5l-10.7,16.9C436.2,479.8,444.9,485.3,453.3,485.3z"
													/>
											</g>
										</g>
										<polygon fill="#E9E6ED" points="328.1,498.9 422.3,498.3 426.9,384.8 376.3,399.5 322,385.5 										"/>
										<path fill="#E9E6ED" d="M323.5,386c-1.6,2.6-10.3,14.3-18.8,25.5c-36,48.2-43.8,62.4-45.6,69.2l23.2,6.1
											c-0.1,0.4-0.2,0.7-0.2,0.7c2.8-6.8,27.5-42.4,41.8-61.6c11.7-15.7,17.9-24,20-27.4L323.5,386z"/>
										<polygon fill="#7785D4" points="376.3,399.5 364.7,405.5 373.2,411.9 379.5,411.9 386.5,406.3 										"/>
										<polygon fill="#FBF7FF" points="322,385.5 355.1,411.4 376.3,399.5 394.3,411.4 426.9,384.8 376.3,399.5 										"/>
										<polygon fill="#7785D4" points="373.2,411.9 366,469 376.5,479.3 387.1,469.8 379.5,411.9 										"/>
									</g>
								</g>
								<path fill="#BA3C43" d="M392.1,360.7c0.1,5.8-7.4,14.2-17,14.4c-9.5,0.2-17.4-8-17.5-13.8c-0.1-5.8,7.5-5.3,17-5.4
									C384.2,355.7,392,354.9,392.1,360.7z"/>
								<path fill="#F7636C" d="M363.2,370.7c3.1,2.6,7.3,4.4,11.9,4.3c6.3-0.1,11.6-3.8,14.6-8
									C380.5,360.7,368.9,366.9,363.2,370.7z"/>
								<path fill="#603141" d="M347.2,301.1c-33.9-6.4-29.8-46.1,7.6-49.7c6.3-0.6-6.9,8.3-4.1,9.4c7.1-5.8,21.9-13,39.7-8.3
									c3.9,1-12,7.9-7.7,7c18.7-3.9,28,2.1,26.9,4.3c-1,2.2-14.8,4.3-1.7,19.6C415.4,292.2,391.2,309.5,347.2,301.1z"/>
								<g>
									<g>
										<path fill="#603141" d="M351.5,326.5c-6.1-4.5-12.8-2.1-15.5-0.2c-0.7,0.5-0.8,1.4-0.4,2.1c0.5,0.7,1.4,0.8,2.1,0.4
											c0.1,0,6.1-4.2,12,0.2c0.3,0.2,0.6,0.3,1,0.3c0.4,0,0.9-0.2,1.1-0.6C352.3,328,352.1,327,351.5,326.5z"/>
										<circle opacity="0.2" fill="#F7636C" cx="339.7" cy="362.2" r="7.3"/>
									</g>
									<g>
										<path fill="#603141" d="M398.3,326.5c6.1-4.5,12.8-2.1,15.5-0.2c0.7,0.5,0.8,1.4,0.4,2.1c-0.5,0.7-1.4,0.8-2.1,0.4
											c-0.1,0-6.1-4.2-12,0.2c-0.3,0.2-0.6,0.3-1,0.3c-0.4,0-0.9-0.2-1.1-0.6C397.5,328,397.6,327,398.3,326.5z"/>
										<circle opacity="0.2" fill="#F7636C" cx="410.1" cy="362.2" r="7.3"/>
									</g>
								</g>
							</g>
							<g>
								<g>
									<g>
										<path fill="#CED6ED" d="M436.6,475.8H313.2c-3.7,0-6.6-3-6.6-6.6v-67c0-3.7,3-6.6,6.6-6.6h123.4c3.7,0,6.6,3,6.6,6.6v67
											C443.2,472.8,440.2,475.8,436.6,475.8z"/>
										<rect x="321.2" y="395.5" fill="#DEE6FF" width="24.7" height="8.6"/>
										<path fill="#B8BED1" d="M436.6,478.1H313.2c-3.7,0-6.6-3-6.6-6.6v-67c0-3.7,3-6.6,6.6-6.6h123.4c3.7,0,6.6,3,6.6,6.6v67
											C443.2,475.1,440.2,478.1,436.6,478.1z"/>
										<path fill="#ABB0C2" d="M436.6,473.6H313.2c-3.7,0-6.6-3-6.6-6.6v4.5c0,3.7,3,6.6,6.6,6.6h123.4c3.7,0,6.6-3,6.6-6.6v-4.5
											C443.2,470.6,440.2,473.6,436.6,473.6z"/>
									</g>
									<path fill="#9FA3B8" d="M438.2,485.5H311.5c-2.8,0-5-0.2-5-3v-4.8h136.7v4.8C443.2,485.3,441,485.5,438.2,485.5z"/>
									<path fill="#9497AB" d="M306.5,481.8v0.8c0,2.8,2.2,3,5,3h126.7c2.8,0,5-0.2,5-3v-0.8H306.5z"/>
									<path fill="#BDC4D9" d="M313.2,397.8c-3.7,0-6.6,3-6.6,6.6v67c0,0.1,0,0.2,0,0.3l74-74H313.2z"/>
								</g>
								<ellipse fill="#DEE6FF" cx="374.9" cy="435.4" rx="9.3" ry="7.7"/>
							</g>
							<g>
								<circle fill="#4A3A4F" cx="314.3" cy="600.5" r="6.8"/>
								<circle fill="#4A3A4F" cx="433" cy="600.5" r="6.8"/>
							</g>
						</g>
					</g>
					<rect x="133.5" y="485.1" fill="#DBBDAB" width="482.7" height="26"/>
					<rect x="133.5" y="485.1" fill="#F0CFBB" width="482.7" height="8"/>
					<rect x="143.5" y="511.1" fill="#DBBDAB" width="20" height="103.6"/>
					<rect x="586.2" y="511.1" fill="#DBBDAB" width="20" height="103.6"/>
					<rect x="143.5" y="511.1" fill="#C7AC9B" width="20" height="11"/>
					<rect x="586.2" y="511.1" fill="#C7AC9B" width="20" height="11"/>
					<g>
						<path fill="#9FA3B8" d="M284.8,485.2h-30v-4c0-4.4,3.6-8,8-8h14c4.4,0,8,3.6,8,8V485.2z"/>
						<path fill="#FFA897" d="M279.9,480.9v-1.2c0-2.3,1.9-4.1,4.1-4.1l0,0c2.3,0,4.1,1.9,4.1,4.1v1.2c0,2.3-1.9,4.1-4.1,4.1l0,0
							C281.7,485,279.9,483.2,279.9,480.9z"/>
						<path fill="#FFA897" d="M272.6,472.5v-3c0-2.2,1.8-4,4-4h1.8c2.2,0,4,1.8,4,4v3c0,2.2-1.8,4-4,4h-1.8
							C274.4,476.5,272.6,474.7,272.6,472.5z"/>
						<path fill="#FFA897" d="M263.3,472.5v-3c0-2.2,1.8-4,4-4h1.8c2.2,0,4,1.8,4,4v3c0,2.2-1.8,4-4,4h-1.8
							C265,476.5,263.3,474.7,263.3,472.5z"/>
						<path fill="#FFA897" d="M253.9,475.7v-3c0-2.2,1.8-4,4-4h1.8c2.2,0,4,1.8,4,4v3c0,2.2-1.8,4-4,4h-1.8
							C255.7,479.7,253.9,477.9,253.9,475.7z"/>
					</g>
					<g>
						<polygon fill="#F6EAF0" points="576.9,450 519.8,450 528.6,389.3 585.7,389.3 						"/>
						<rect x="476.6" y="477.9" fill="#F6EAF0" width="40.4" height="7.2"/>
						<rect x="508.1" y="433.8" fill="#C1C7DB" width="90.8" height="51.3"/>
						<rect x="522.8" y="481.5" fill="#ABB0C2" width="61.5" height="3.7"/>
						<path fill="#C8CEE3" d="M578.7,441.5h-50.5v-16.9c0-3.6,3-6.6,6.6-6.6h37.3c3.6,0,6.6,3,6.6,6.6V441.5z"/>
						<path fill="#C8CFE6" d="M486.8,485.2h21.3v-51.3h-10.3c-6.1,0-11,4.9-11,11V485.2z"/>
					</g>
				</g>
			</g>
		</g>

	</g>
	<g id="eye_x5F_left" class="eye_left">

			<ellipse id="eye_x5F_left1" transform="matrix(-0.9985 -5.390551e-02 5.390551e-02 -0.9985 668.012 694.6981)" fill="#603141" cx="343.4" cy="338.3" rx="4.3" ry="5.8"/>
	</g>
	<g id="eye_x5F_right" class="eye_right">

			<ellipse id="eye_x5F_right1" transform="matrix(-0.9985 -5.390551e-02 5.390551e-02 -0.9985 793.8952 697.3392)" fill="#603141" cx="406.4" cy="338" rx="4.3" ry="5.8"/>
	</g>
</g>







<style type="text/css">
.ttt { stroke: blue;}
 .eye_left, .eye_right {
	 animation-timing-function: ease-in-out;
	 animation-duration: 2s;
	 animation-iteration-count: infinite;
	 animation-name: blinking;
	 }

	 @keyframes blinking {
		 10% {
			 opacity: 0;
		 }
		 12% {
				 opacity: 1;
		 }
	 }

	 	 .myeffect3 {
	 	 -webkit-animation-timing-function : cubic-bezier(0.2,1,0.2,1);
	 	         animation-timing-function : cubic-bezier(0.2,1,0.2,1);
	 	 opacity : 0;
	 	 will-change : transform, opacity;
	 	 -webkit-transform : perspective(800px) rotateX(-60deg) translateY(50px);
	 	         transform : perspective(800px) rotateX(-60deg) translateY(50px);
	 	 -webkit-animation-duration : 1.50s;
	 	         animation-duration : 1.50s;
	 	 -webkit-animation-name : fade-content;
	 	         animation-name : fade-content;
	 	 -webkit-animation-fill-mode : forwards;
	 	         animation-fill-mode : forwards;
	 	 }

	 	 .myeffect3 {
	 	 -webkit-animation-delay : 0.8s;
	 	         animation-delay : 0.8s;
	 	 }
	 	 @-webkit-keyframes fade-content {
	 	 to {
	 	 opacity : 1;
	 	 -webkit-transform : none;
	 	         transform : none;
	 	 }
	 	 }
	 	 @keyframes fade-content {
	 	 to {
	 	 opacity : 1;
	 	 -webkit-transform : none;
	 	         transform : none;
	 	 }
	 	 }

 </style>



</svg>
